# xmcd
#
# Track frame offsets:
#	180
#	17720
#	38215
#	63670
#	77650
#	98102
#	121625
#	138650
#	160360
#	179787
#	200532
#	215172
#
# Disc length: 3208 seconds
#
# Revision: 6
# Processed by: cddbd v1.5.2PL0 Copyright (c) Steve Scherf et al.
# Submitted via: audiograbber 1.83.01
#
DISCID=b00c860c
DTITLE=Boubacar Traoré - Maciré
DYEAR=1999
DGENRE=Blues
TTITLE0=Duna Ma Yelema
TTITLE1=Baba Drame
TTITLE2=Les Enfants De Pierrette
TTITLE3=Samba
TTITLE4=Bebe Bo Nadero
TTITLE5=Tunga Magni
TTITLE6=Courir Un Homme Qui Vous Aime
TTITLE7=Macire
TTITLE8=Serrer La Main
TTITLE9=Kalilou
TTITLE10=Solo De Kar Kar
TTITLE11=Kar Kar Madison
EXTD=
EXTT0=
EXTT1=
EXTT2=
EXTT3=
EXTT4=
EXTT5=
EXTT6=
EXTT7=
EXTT8=
EXTT9=
EXTT10=
EXTT11=
PLAYORDER=
